<svg width="639" height="470" viewBox="0 0 639 470" fill="none" xmlns="http://www.w3.org/2000/svg">
<path d="M303 334C305.761 334 308 331.761 308 329C308 326.239 305.761 324 303 324C300.239 324 298 326.239 298 329C298 331.761 300.239 334 303 334Z" fill="#696AAC"/>
<path d="M317.37 334.05C320.187 334.05 322.47 331.767 322.47 328.95C322.47 326.133 320.187 323.85 317.37 323.85C314.553 323.85 312.27 326.133 312.27 328.95C312.27 331.767 314.553 334.05 317.37 334.05Z" fill="#696AAC"/>
<path d="M303 348.33C305.789 348.33 308.05 346.069 308.05 343.28C308.05 340.491 305.789 338.23 303 338.23C300.211 338.23 297.95 340.491 297.95 343.28C297.95 346.069 300.211 348.33 303 348.33Z" fill="#696AAC"/>
<path d="M317.44 348.26C320.201 348.26 322.44 346.021 322.44 343.26C322.44 340.499 320.201 338.26 317.44 338.26C314.679 338.26 312.44 340.499 312.44 343.26C312.44 346.021 314.679 348.26 317.44 348.26Z" fill="#696AAC"/>
</svg>
